<svg width="213" height="60" viewBox="0 0 213 60" fill="none" xmlns="http://www.w3.org/2000/svg">
<path d="M0 20.5659H9.7682L11.7218 32.2229V50.4959H1.90084V30.7526L0 20.5659ZM22.9685 19.7258C25.8549 19.7258 28.3014 20.3034 30.3078 21.4586C32.3495 22.6138 33.8983 24.2415 34.9543 26.3419C36.0455 28.4072 36.5912 30.8926 36.5912 33.7981V50.4959H26.7701V35.2684C26.7701 32.783 26.1541 30.9101 24.9221 29.6499C23.6901 28.3547 21.9301 27.7071 19.642 27.7071C18.0228 27.7071 16.6147 28.0572 15.4179 28.7573C14.2211 29.4224 13.3059 30.3851 12.6723 31.6453C12.0386 32.8705 11.7218 34.3407 11.7218 36.056L8.60658 34.4282C8.99379 31.2427 9.8562 28.5648 11.1938 26.3944C12.5667 24.224 14.2563 22.5788 16.2627 21.4586C18.3044 20.3034 20.5396 19.7258 22.9685 19.7258Z" fill="#84A59D"/>
<path d="M57.1477 51.3361C53.346 51.3361 50.0195 50.6709 47.1683 49.3407C44.317 48.0105 42.0994 46.1552 40.5153 43.7748C38.9313 41.3944 38.1393 38.6464 38.1393 35.5309C38.1393 32.3804 38.9313 29.6324 40.5153 27.287C42.0994 24.9066 44.317 23.0513 47.1683 21.7211C50.0547 20.3909 53.3812 19.7258 57.1477 19.7258C60.9494 19.7258 64.2758 20.3909 67.1271 21.7211C69.9783 23.0513 72.196 24.9066 73.78 27.287C75.3993 29.6324 76.2089 32.3804 76.2089 35.5309C76.2089 38.6814 75.3993 41.4469 73.78 43.8273C72.196 46.1727 69.9783 48.0105 67.1271 49.3407C64.2758 50.6709 60.9494 51.3361 57.1477 51.3361ZM57.1477 43.9848C59.0837 43.9848 60.7206 43.6523 62.0582 42.9872C63.431 42.287 64.4694 41.3069 65.1734 40.0467C65.9127 38.7865 66.2823 37.2812 66.2823 35.5309C66.2823 33.7806 65.9127 32.2754 65.1734 31.0152C64.4694 29.72 63.431 28.7398 62.0582 28.0747C60.7206 27.3746 59.0837 27.0245 57.1477 27.0245C55.282 27.0245 53.6628 27.3746 52.29 28.0747C50.9172 28.7398 49.8611 29.72 49.1219 31.0152C48.3827 32.2754 48.0131 33.7806 48.0131 35.5309C48.0131 37.2812 48.3827 38.7865 49.1219 40.0467C49.8611 41.3069 50.9172 42.287 52.29 42.9872C53.6628 43.6523 55.282 43.9848 57.1477 43.9848Z" fill="#84A59D"/>
<path d="M76.8507 27.8121V23.5589L83.0813 21.301L87.2526 12.5846H92.9023V20.5659H105.891V27.8121H92.9023V37.6838C92.9023 39.9242 93.3599 41.4994 94.2751 42.4096C95.1903 43.2847 96.8272 43.7223 99.1856 43.7223C100.664 43.7223 101.984 43.5998 103.146 43.3547C104.307 43.0747 105.399 42.7071 106.419 42.252V49.6558C105.363 50.0758 103.973 50.4609 102.248 50.811C100.558 51.161 98.7984 51.3361 96.968 51.3361C93.7647 51.3361 91.1246 50.8285 89.0478 49.8133C87.0062 48.7981 85.4925 47.3804 84.5069 45.5601C83.5565 43.7048 83.0813 41.5344 83.0813 39.049V27.8121H76.8507Z" fill="#84A59D"/>
<path d="M126.633 51.3361C123.042 51.3361 119.821 50.6709 116.97 49.3407C114.154 48.0105 111.936 46.1552 110.317 43.7748C108.698 41.3944 107.888 38.6114 107.888 35.4259C107.888 32.3104 108.663 29.5799 110.212 27.2345C111.76 24.8891 113.89 23.0513 116.6 21.7211C119.346 20.3909 122.444 19.7258 125.893 19.7258C129.414 19.7258 132.441 20.4959 134.975 22.0362C137.51 23.5764 139.463 25.7468 140.836 28.5473C142.209 31.3477 142.895 34.6383 142.895 38.4189H115.756V32.2754H137.51L133.972 34.4807C133.866 32.8355 133.462 31.4527 132.758 30.3326C132.089 29.1774 131.191 28.3022 130.065 27.7071C128.938 27.077 127.601 26.762 126.052 26.762C124.362 26.762 122.901 27.0945 121.669 27.7596C120.437 28.4247 119.469 29.3524 118.765 30.5426C118.097 31.7328 117.762 33.1155 117.762 34.6908C117.762 36.6861 118.202 38.3839 119.082 39.7841C119.997 41.1844 121.3 42.252 122.989 42.9872C124.714 43.7223 126.809 44.0898 129.273 44.0898C131.526 44.0898 133.778 43.7923 136.031 43.1972C138.284 42.5671 140.308 41.6919 142.103 40.5718V46.9253C140.062 48.3256 137.721 49.4107 135.081 50.1809C132.476 50.951 129.66 51.3361 126.633 51.3361Z" fill="#84A59D"/>
<path d="M166.209 16.5228C163.816 16.5228 162.108 16.9778 161.087 17.888C160.102 18.7981 159.609 20.2334 159.609 22.1937V50.4959H149.788V22.7713C149.788 19.9358 150.351 17.5204 151.478 15.5251C152.604 13.4947 154.294 11.937 156.547 10.8518C158.835 9.76663 161.668 9.22404 165.048 9.22404C166.596 9.22404 167.969 9.34656 169.166 9.5916C170.363 9.80163 171.612 10.0992 172.915 10.4842V17.7305C171.859 17.3454 170.785 17.0478 169.694 16.8378C168.603 16.6278 167.441 16.5228 166.209 16.5228ZM143.61 30.175V22.9288H172.228V30.175H143.61Z" fill="#84A59D"/>
<path d="M185.279 60C183.167 60 181.284 59.7375 179.63 59.2124C178.01 58.6873 176.426 57.8996 174.878 56.8495V49.9708C176.462 50.986 177.94 51.7036 179.313 52.1237C180.721 52.5788 182.252 52.8063 183.907 52.8063C185.385 52.8063 186.67 52.4912 187.761 51.8611C188.887 51.231 189.82 50.0758 190.56 48.3956L202.598 20.5659H213L198.268 51.4411C197.283 53.5414 196.104 55.2217 194.731 56.4819C193.358 57.7421 191.862 58.6348 190.243 59.1599C188.659 59.72 187.004 60 185.279 60ZM186.441 48.133L173.399 20.5659H184.171L195.892 48.133H186.441Z" fill="#84A59D"/>
<path d="M90.4395 9.36406C89.5594 9.36406 88.7528 9.15986 88.0194 8.75146C87.3154 8.34306 86.758 7.7888 86.3474 7.08868C85.9367 6.35939 85.7314 5.55718 85.7314 4.68203C85.7314 3.80688 85.9367 3.01925 86.3474 2.31914C86.758 1.61902 87.3154 1.06476 88.0194 0.656359C88.7528 0.218786 89.5594 0 90.4395 0C91.3195 0 92.1115 0.218786 92.8155 0.656359C93.5195 1.06476 94.0769 1.61902 94.4875 2.31914C94.8982 3.01925 95.1036 3.80688 95.1036 4.68203C95.1036 5.55718 94.8982 6.35939 94.4875 7.08868C94.0769 7.7888 93.5195 8.34306 92.8155 8.75146C92.1115 9.15986 91.3195 9.36406 90.4395 9.36406Z" fill="#84A59D"/>
</svg>
